<svg width="12" height="14" viewBox="0 0 12 14" fill="none" xmlns="http://www.w3.org/2000/svg">
<g clip-path="url(#clip0_2_40)">
<path d="M6.34516 1.21952C7.27201 0.0071693 8.56055 0.00125885 8.56055 0.00125885C8.56055 0.00125885 8.75222 1.14108 7.83144 2.23909C6.84828 3.41152 5.73078 3.21967 5.73078 3.21967C5.73078 3.21967 5.52094 2.29759 6.34516 1.21952V1.21952ZM5.84866 4.01811C6.32548 4.01811 7.21043 3.36764 8.36232 3.36764C10.3451 3.36764 11.1251 4.76782 11.1251 4.76782C11.1251 4.76782 9.59954 5.5419 9.59954 7.42018C9.59954 9.53904 11.5 10.2693 11.5 10.2693C11.5 10.2693 10.1715 13.9801 8.37708 13.9801C7.55292 13.9801 6.91217 13.4289 6.04378 13.4289C5.15883 13.4289 4.28065 14.0007 3.70868 14.0007C2.0701 14.0007 0 10.4806 0 7.65099C0 4.86705 1.7522 3.40664 3.39569 3.40664C4.46411 3.40664 5.29321 4.01811 5.84866 4.01811V4.01811Z" fill="#999999"/>
</g>
<defs>
<clipPath id="clip0_2_40">
<rect width="11.5" height="14" fill="white"/>
</clipPath>
</defs>
</svg>
