<svg width="14" height="14" viewBox="0 0 14 14" fill="none" xmlns="http://www.w3.org/2000/svg">
<g clip-path="url(#clip0_2_32)">
<path d="M13.9926 7.13097C13.9926 6.5574 13.945 6.13884 13.8419 5.70479H7.13944V8.29361H11.0736C10.9943 8.93697 10.566 9.90586 9.61418 10.5569L9.60084 10.6436L11.72 12.2479L11.8669 12.2622C13.2153 11.0453 13.9926 9.25475 13.9926 7.13097" fill="#4285F4"/>
<path d="M7.13944 13.9519C9.06687 13.9519 10.685 13.3318 11.8669 12.2622L9.61418 10.5569C9.01136 10.9677 8.20229 11.2545 7.13944 11.2545C5.25166 11.2545 3.64943 10.0376 3.07827 8.35564L2.99456 8.36259L0.790986 10.0291L0.762169 10.1074C1.93608 12.3861 4.34738 13.9519 7.13944 13.9519Z" fill="#34A853"/>
<path d="M3.07822 8.35565C2.92752 7.92159 2.8403 7.45649 2.8403 6.97595C2.8403 6.49536 2.92752 6.03031 3.07029 5.59626L3.0663 5.50381L0.835117 3.81056L0.762116 3.84449C0.278291 4.79014 0.000671387 5.85205 0.000671387 6.97595C0.000671387 8.09985 0.278291 9.16172 0.762116 10.1074L3.07822 8.35565" fill="#FBBC05"/>
<path d="M7.13944 2.69736C8.47991 2.69736 9.38413 3.26318 9.89973 3.73603L11.9144 1.81376C10.6771 0.689855 9.06687 7.62939e-06 7.13944 7.62939e-06C4.34738 7.62939e-06 1.93608 1.56571 0.762169 3.8445L3.07034 5.59627C3.64943 3.91429 5.25166 2.69736 7.13944 2.69736" fill="#EB4335"/>
</g>
<defs>
<clipPath id="clip0_2_32">
<rect width="14" height="14" fill="white"/>
</clipPath>
</defs>
</svg>
